<svg width="32" height="32" viewBox="0 0 32 32" fill="none" xmlns="http://www.w3.org/2000/svg">
<g>
<path d="M16 0C7.16429 0 0 7.16429 0 16C0 24.8357 7.16429 32 16 32C24.8357 32 32 24.8357 32 16C32 7.16429 24.8357 0 16 0ZM16 29.2857C8.66429 29.2857 2.71429 23.3357 2.71429 16C2.71429 8.66429 8.66429 2.71429 16 2.71429C23.3357 2.71429 29.2857 8.66429 29.2857 16C29.2857 23.3357 23.3357 29.2857 16 29.2857ZM17.7036 15.1714L16.7964 14.9607V10.1643C18.1536 10.35 18.9929 11.2 19.1357 12.2429C19.1536 12.3857 19.275 12.4893 19.4179 12.4893H21.0214C21.1893 12.4893 21.3214 12.3429 21.3071 12.175C21.0893 9.95 19.2571 8.52143 16.8107 8.275V7.10714C16.8107 6.95 16.6821 6.82143 16.525 6.82143H15.5214C15.3643 6.82143 15.2357 6.95 15.2357 7.10714V8.28571C12.7071 8.53214 10.7286 9.92857 10.7286 12.5357C10.7286 14.95 12.5071 16.1143 14.375 16.5607L15.2571 16.7857V21.8821C13.6786 21.6714 12.7929 20.8286 12.6107 19.6929C12.5893 19.5571 12.4679 19.4571 12.3286 19.4571H10.6786C10.5107 19.4571 10.3786 19.6 10.3929 19.7679C10.5536 21.7321 12.0429 23.5393 15.2214 23.7714V24.8929C15.2214 25.05 15.35 25.1786 15.5071 25.1786H16.5214C16.6786 25.1786 16.8071 25.05 16.8071 24.8893L16.8 23.7571C19.5964 23.5107 21.5964 22.0143 21.5964 19.3286C21.5929 16.85 20.0179 15.7429 17.7036 15.1714V15.1714ZM15.2536 14.5929C15.0536 14.5357 14.8857 14.4821 14.7179 14.4143C13.5107 13.9786 12.95 13.275 12.95 12.3679C12.95 11.0714 13.9321 10.3321 15.2536 10.1643V14.5929ZM16.7964 21.8929V17.1179C16.9071 17.15 17.0071 17.175 17.1107 17.1964C18.8 17.7107 19.3679 18.425 19.3679 19.5214C19.3679 20.9179 18.3179 21.7571 16.7964 21.8929Z" fill="#1356FB"/>
</g>
</svg>
